<svg width="101" height="119" viewBox="0 0 101 119" fill="none" xmlns="http://www.w3.org/2000/svg">
<g clip-path="url(#clip0_3331_1469)">
<path d="M53.2849 15.6171C53.3324 15.5363 53.3039 15.4316 53.2278 15.3888C53.204 15.3746 53.1755 15.3698 53.1469 15.3698H27.7935C27.5129 15.3746 27.2513 15.2271 27.1086 14.9893L18.4863 0.317529C18.4482 0.246191 18.472 0.160586 18.5433 0.122539C18.5624 0.113027 18.5861 0.103516 18.6099 0.103516C41.3191 0.103516 62.9868 0.103516 83.6129 0.113027C92.2496 0.113027 98.9078 6.48112 100.163 14.9893C100.197 15.2462 100.087 15.3698 99.8304 15.3698H72.256C71.9611 15.3698 71.6853 15.5268 71.5331 15.7836C65.6881 25.7518 59.8765 35.644 54.0933 45.4649C52.9377 47.4148 50.2887 48.0235 48.4149 46.8773C47.6349 46.397 46.9405 45.6218 46.3413 44.5565C45.119 42.3878 43.9015 40.3333 42.6936 38.4024C41.7757 36.9281 41.7281 35.4776 42.5509 34.0508C46.2509 27.6447 49.8273 21.5001 53.2896 15.6124L53.2849 15.6171Z" fill="#F6D85A"></path>
<path d="M45.4712 66.2053C47.8301 70.224 53.4753 69.991 55.7629 66.0864C63.7147 52.5132 71.6284 39.0114 79.4946 25.5903C79.604 25.4049 79.7657 25.3145 79.975 25.3145H97.467C97.5336 25.3145 97.5859 25.3716 97.5811 25.4381C97.5811 25.4572 97.5764 25.4762 97.5669 25.4905C86.7949 43.8148 75.9325 62.315 64.9893 80.9818C59.6817 90.0417 47.2975 91.3876 39.436 84.8958C38.1615 83.8448 36.6872 81.8901 35.0179 79.0366C24.574 61.1594 13.9351 43.0205 3.0918 24.6154C-1.30261 17.1582 1.34165 8.29329 8.01887 3.10941C8.23288 2.94295 8.40885 2.97624 8.54677 3.20928C20.5601 23.6785 32.8682 44.6756 45.4712 66.2053Z" fill="white"></path>
<path d="M12.7178 106.53L12.694 118.548C12.694 118.605 12.6512 118.653 12.6036 118.653L9.25076 118.643C9.19845 118.643 9.1604 118.596 9.1604 118.539L9.19369 106.525" fill="white"></path>
<path d="M2.35452 104.837C2.30221 104.837 2.26416 104.789 2.26416 104.732L2.27367 101.95C2.27367 101.893 2.31647 101.845 2.36403 101.845L19.5469 101.888C19.5993 101.888 19.6373 101.936 19.6373 101.993V104.775C19.6373 104.832 19.5945 104.879 19.5469 104.879" fill="white"></path>
<path d="M27.4703 109.345V118.558C27.4751 118.605 27.437 118.648 27.3942 118.648H24.0937C24.0413 118.648 23.9985 118.596 23.9985 118.539V101.874C28.3549 101.874 32.7208 101.874 37.0914 101.879C38.618 101.879 40.2683 102.44 40.3682 104.475C40.4062 105.241 40.411 106.492 40.3872 108.233C40.3729 109.26 40.3587 109.826 40.3444 109.926C39.9354 112.717 36.9725 112.356 35.17 112.289C35.0179 112.285 34.9988 112.332 35.1177 112.442L41.814 118.491C41.9376 118.605 41.9186 118.657 41.7617 118.657L37.0676 118.643C36.963 118.643 36.8726 118.6 36.7965 118.524L28.4167 109.626C28.3264 109.526 28.3882 109.355 28.5166 109.355L35.7835 109.431C36.6016 109.426 37.0058 108.998 37.0058 108.152C37.0058 107.486 37.0058 106.815 37.0058 106.14C37.0106 105.246 36.6111 104.794 35.8026 104.789C32.9538 104.775 30.2049 104.77 27.5607 104.78C27.5131 104.78 27.4751 104.823 27.4751 104.875V109.345" fill="white"></path>
<path d="M47.6401 101.874H51.012C51.0548 101.874 51.0881 101.912 51.0881 101.96V118.558C51.0881 118.605 51.0548 118.643 51.012 118.643H47.6401C47.5973 118.643 47.564 118.605 47.564 118.558V101.96C47.564 101.912 47.5973 101.874 47.6401 101.874Z" fill="white"></path>
<path d="M70.6915 109.236C70.9816 109.236 71.8329 108.651 71.8329 108.057V105.978C71.8329 105.327 71.3288 104.794 70.7011 104.789L62.5352 104.756C62.4592 104.756 62.4021 104.823 62.3973 104.903L62.3022 118.472C62.3022 118.581 62.2547 118.638 62.1548 118.638H58.9588C58.8828 118.638 58.8257 118.567 58.8257 118.486V101.983C58.8257 101.903 58.8637 101.86 58.9351 101.86C62.8301 101.874 67.0343 101.869 71.5476 101.85C73.5641 101.841 75.2667 102.388 75.2239 105.027C75.2049 106.259 75.2096 107.434 75.2334 108.551C75.2619 109.773 75.0289 110.596 74.5771 111.138C73.935 111.914 73.0409 112.104 71.5 112.104C66.1592 112.104 65.2508 112.085 65.2508 112.085V109.265C65.2508 109.265 68.7511 109.231 70.6773 109.231L70.6915 109.236Z" fill="white"></path>
<path d="M99.0218 115.647C99.0218 117.283 97.8329 118.614 96.3633 118.614L83.0469 118.638C81.5774 118.638 80.3789 117.316 80.3789 115.68L80.3599 104.856C80.3599 103.22 81.5488 101.888 83.0184 101.888L96.3348 101.864C97.8043 101.864 99.0028 103.186 99.0028 104.822L99.0218 115.647ZM95.5263 104.96C95.5263 104.908 95.4882 104.865 95.4407 104.865H83.9696C83.922 104.865 83.884 104.908 83.884 104.96V115.385C83.884 115.437 83.922 115.48 83.9696 115.48H95.4407C95.4882 115.48 95.5263 115.437 95.5263 115.385V104.96Z" fill="white"></path>
</g>
</svg>